<svg id="icons" xmlns="http://www.w3.org/2000/svg" viewBox="0 0 128 128"><defs><style>.cls-1{fill:#fff;}.cls-2,.cls-4{fill:#303442;}.cls-2{opacity:0.08;}.cls-3{fill:#92d5ed;}.cls-5{fill:none;stroke:#303442;stroke-linecap:round;stroke-linejoin:round;stroke-width:4px;}</style></defs><title>code</title><path class="cls-1" d="M110,38V98a3.9989,3.9989,0,0,1-4,4H22a3.9989,3.9989,0,0,1-4-4V38Z"/><path class="cls-2" d="M110,92v6a3.99891,3.99891,0,0,1-4,4H22a3.99891,3.99891,0,0,1-4-4V92Z"/><path class="cls-3" d="M110,30v8H18V30a3.9989,3.9989,0,0,1,4-4h84A3.9989,3.9989,0,0,1,110,30ZM38,32a2,2,0,1,0-2,2A2.00588,2.00588,0,0,0,38,32Zm-6,0a2,2,0,1,0-2,2A2.00588,2.00588,0,0,0,32,32Zm-6,0a2,2,0,1,0-2,2A2.00588,2.00588,0,0,0,26,32Z"/><circle class="cls-4" cx="36" cy="32" r="2"/><circle class="cls-4" cx="30" cy="32" r="2"/><circle class="cls-4" cx="24" cy="32" r="2"/><path class="cls-5" d="M110,38V98a3.9989,3.9989,0,0,1-4,4H22a3.9989,3.9989,0,0,1-4-4V30a3.9989,3.9989,0,0,1,4-4h84a3.9989,3.9989,0,0,1,4,4Z"/><line class="cls-5" x1="18" y1="38" x2="110" y2="38"/><polyline class="cls-5" points="46 57 34 70 46 83"/><polyline class="cls-5" points="82 57 94 70 82 83"/><line class="cls-5" x1="70" y1="51" x2="58" y2="89"/></svg>